<svg width="450" height="41" viewBox="0 0 450 41" fill="none" xmlns="http://www.w3.org/2000/svg">
<rect y="0.520386" width="450" height="40" rx="10" fill="white"/>
<path d="M17.96 17.8644C18.0347 16.8831 18.4133 16.1151 19.096 15.5604C19.7787 15.0057 20.664 14.7284 21.752 14.7284C22.4773 14.7284 23.1013 14.8617 23.624 15.1284C24.1573 15.3844 24.5573 15.7364 24.824 16.1844C25.1013 16.6324 25.24 17.1391 25.24 17.7044C25.24 18.3657 25.048 18.9364 24.664 19.4164C24.2907 19.8964 23.8 20.2057 23.192 20.3444V20.4244C23.8853 20.5951 24.4347 20.9311 24.84 21.4324C25.2453 21.9337 25.448 22.5897 25.448 23.4004C25.448 24.0084 25.3093 24.5577 25.032 25.0484C24.7547 25.5284 24.3387 25.9071 23.784 26.1844C23.2293 26.4617 22.5627 26.6004 21.784 26.6004C20.6533 26.6004 19.7253 26.3071 19 25.7204C18.2747 25.1231 17.8693 24.2804 17.784 23.1924H19.192C19.2667 23.8324 19.528 24.3551 19.976 24.7604C20.424 25.1657 21.0213 25.3684 21.768 25.3684C22.5147 25.3684 23.08 25.1764 23.464 24.7924C23.8587 24.3977 24.056 23.8911 24.056 23.2724C24.056 22.4724 23.7893 21.8964 23.256 21.5444C22.7227 21.1924 21.9173 21.0164 20.84 21.0164H20.472V19.8004H20.856C21.8373 19.7897 22.5787 19.6297 23.08 19.3204C23.5813 19.0004 23.832 18.5097 23.832 17.8484C23.832 17.2831 23.6453 16.8297 23.272 16.4884C22.9093 16.1471 22.3867 15.9764 21.704 15.9764C21.0427 15.9764 20.5093 16.1471 20.104 16.4884C19.6987 16.8297 19.4587 17.2884 19.384 17.8644H17.96ZM41.2475 17.9444V26.5204H39.9835V21.0484C39.9835 20.8244 39.9888 20.5897 39.9995 20.3444C40.0208 20.0991 40.0422 19.8591 40.0635 19.6244H40.0155L37.2155 26.5204H36.0315L33.3115 19.6244H33.2635C33.2848 19.8591 33.2955 20.0991 33.2955 20.3444C33.3062 20.5897 33.3115 20.8404 33.3115 21.0964V26.5204H32.0475V17.9444H33.9195L36.6235 24.8404L39.3755 17.9444H41.2475ZM47.297 17.7844C48.033 17.7844 48.6623 17.9444 49.185 18.2644C49.7183 18.5844 50.1237 19.0377 50.401 19.6244C50.689 20.2004 50.833 20.8777 50.833 21.6564V22.5044H44.961C44.9823 23.4751 45.2277 24.2164 45.697 24.7284C46.177 25.2297 46.8437 25.4804 47.697 25.4804C48.241 25.4804 48.721 25.4324 49.137 25.3364C49.5637 25.2297 50.001 25.0804 50.449 24.8884V26.1204C50.0117 26.3124 49.5797 26.4511 49.153 26.5364C48.7263 26.6324 48.2197 26.6804 47.633 26.6804C46.8223 26.6804 46.1023 26.5151 45.473 26.1844C44.8543 25.8537 44.369 25.3631 44.017 24.7124C43.6757 24.0511 43.505 23.2457 43.505 22.2964C43.505 21.3577 43.6597 20.5524 43.969 19.8804C44.289 19.2084 44.7317 18.6911 45.297 18.3284C45.873 17.9657 46.5397 17.7844 47.297 17.7844ZM47.281 18.9364C46.609 18.9364 46.0757 19.1551 45.681 19.5924C45.297 20.0191 45.0677 20.6164 44.993 21.3844H49.361C49.361 20.8937 49.2863 20.4671 49.137 20.1044C48.9877 19.7417 48.7583 19.4591 48.449 19.2564C48.1503 19.0431 47.761 18.9364 47.281 18.9364ZM56.4563 26.6804C55.6989 26.6804 55.0216 26.5257 54.4243 26.2164C53.8376 25.9071 53.3736 25.4271 53.0323 24.7764C52.7016 24.1257 52.5363 23.2937 52.5363 22.2804C52.5363 21.2244 52.7123 20.3657 53.0643 19.7044C53.4163 19.0431 53.8909 18.5577 54.4883 18.2484C55.0963 17.9391 55.7843 17.7844 56.5523 17.7844C56.9896 17.7844 57.4109 17.8324 57.8163 17.9284C58.2216 18.0137 58.5523 18.1204 58.8083 18.2484L58.3763 19.4164C58.1203 19.3204 57.8216 19.2297 57.4803 19.1444C57.1389 19.0591 56.8189 19.0164 56.5203 19.0164C55.9443 19.0164 55.4696 19.1391 55.0963 19.3844C54.7229 19.6297 54.4456 19.9924 54.2643 20.4724C54.0829 20.9524 53.9923 21.5497 53.9923 22.2644C53.9923 22.9471 54.0829 23.5284 54.2643 24.0084C54.4456 24.4884 54.7176 24.8511 55.0803 25.0964C55.4429 25.3417 55.8963 25.4644 56.4403 25.4644C56.9096 25.4644 57.3203 25.4164 57.6723 25.3204C58.0349 25.2244 58.3656 25.1071 58.6643 24.9684V26.2164C58.3763 26.3657 58.0563 26.4777 57.7043 26.5524C57.3629 26.6377 56.9469 26.6804 56.4563 26.6804ZM61.2318 26.5204H59.5998L62.0478 22.9204C61.7171 22.8351 61.3971 22.7017 61.0878 22.5204C60.7784 22.3284 60.5278 22.0671 60.3358 21.7364C60.1438 21.3951 60.0478 20.9737 60.0478 20.4724C60.0478 19.6511 60.3251 19.0271 60.8798 18.6004C61.4344 18.1631 62.1704 17.9444 63.0878 17.9444H66.9278V26.5204H65.5198V23.1124H63.4398L61.2318 26.5204ZM61.4078 20.4884C61.4078 20.9791 61.5891 21.3471 61.9518 21.5924C62.3251 21.8271 62.8424 21.9444 63.5038 21.9444H65.5198V19.1124H63.2318C62.5811 19.1124 62.1118 19.2404 61.8238 19.4964C61.5464 19.7524 61.4078 20.0831 61.4078 20.4884ZM78.1053 29.4964H76.7292V26.5204H69.6413V17.9444H71.0493V25.3364H75.4813V17.9444H76.8893V25.3524H78.1053V29.4964ZM82.9986 17.8004C84.044 17.8004 84.8173 18.0297 85.3186 18.4884C85.82 18.9471 86.0706 19.6777 86.0706 20.6804V26.5204H85.0466L84.7746 25.3044H84.7106C84.4653 25.6137 84.2093 25.8751 83.9426 26.0884C83.6866 26.2911 83.388 26.4404 83.0466 26.5364C82.716 26.6324 82.3106 26.6804 81.8306 26.6804C81.3186 26.6804 80.8546 26.5897 80.4386 26.4084C80.0333 26.2271 79.7133 25.9497 79.4786 25.5764C79.244 25.1924 79.1266 24.7124 79.1266 24.1364C79.1266 23.2831 79.4626 22.6271 80.1346 22.1684C80.8066 21.6991 81.8413 21.4431 83.2386 21.4004L84.6946 21.3524V20.8404C84.6946 20.1257 84.54 19.6297 84.2306 19.3524C83.9213 19.0751 83.484 18.9364 82.9186 18.9364C82.4706 18.9364 82.044 19.0057 81.6386 19.1444C81.2333 19.2724 80.8546 19.4217 80.5026 19.5924L80.0706 18.5364C80.444 18.3337 80.8866 18.1631 81.3986 18.0244C81.9106 17.8751 82.444 17.8004 82.9986 17.8004ZM83.4146 22.3764C82.348 22.4191 81.6066 22.5897 81.1906 22.8884C80.7853 23.1871 80.5826 23.6084 80.5826 24.1524C80.5826 24.6324 80.7266 24.9844 81.0146 25.2084C81.3133 25.4324 81.692 25.5444 82.1506 25.5444C82.876 25.5444 83.4786 25.3471 83.9586 24.9524C84.4386 24.5471 84.6786 23.9284 84.6786 23.0964V22.3284L83.4146 22.3764Z" fill="black"/>
<path d="M425.5 25.5204L419.005 18.0204H431.995L425.5 25.5204Z" fill="#648FFF"/>
</svg>
